<svg width="60" height="60" viewBox="0 0 60 60" fill="none" xmlns="http://www.w3.org/2000/svg">
<g clip-path="url(#clip0_36_25)">
<path d="M54.4138 30.0021C54.4138 28.8939 55.3124 27.9954 56.4205 27.9954L60 27.9943C59.7333 23.972 58.6819 20.1723 56.9899 16.7359L53.8846 18.5289C53.5693 18.7122 53.2234 18.7984 52.8833 18.7984C52.1895 18.7984 51.5155 18.4388 51.1441 17.795C50.5893 16.8358 50.9177 15.608 51.8779 15.0544L55.0067 13.2476C52.8195 9.98955 50.0143 7.1833 46.7562 4.99538L44.9503 8.12404C44.579 8.76767 43.904 9.12738 43.2102 9.12738C42.8701 9.12738 42.5254 9.04106 42.209 8.85884C41.2494 8.30432 40.9204 7.0776 41.474 6.11725L43.266 3.0111C39.8297 1.31789 36.0301 0.266604 32.0067 0V3.57736C32.0067 4.68555 31.1081 5.58416 30 5.58416C28.8916 5.58416 27.9932 4.68567 27.9932 3.57736V0C23.9699 0.266604 20.1721 1.31789 16.7348 3.0111L18.5258 6.11434C19.0794 7.07458 18.7502 8.3013 17.7909 8.85606C17.4746 9.03827 17.1294 9.12448 16.7896 9.12448C16.0959 9.12448 15.4205 8.76489 15.0492 8.12114L13.2446 4.99429C9.98664 7.18124 7.18112 9.98858 4.99344 13.2466L8.12017 15.0514C9.08028 15.606 9.40876 16.8338 8.85485 17.7931C8.48254 18.4369 7.80853 18.7964 7.11477 18.7964C6.77468 18.7964 6.42877 18.7102 6.11349 18.528L3.01038 16.7359C1.31777 20.1732 0.266362 23.972 0 27.9943L3.57531 27.9954C4.68361 27.9954 5.58198 28.8939 5.58198 30.0021C5.58198 31.1102 4.68361 32.0089 3.57531 32.0089L0.000847516 32.0078C0.266241 36.0301 1.31777 39.8289 3.01098 43.2652L6.11119 41.4761C7.07131 40.9215 8.29718 41.2508 8.85291 42.2109C9.40646 43.1711 9.07726 44.3978 8.11799 44.9526L4.99429 46.7555C7.18233 50.0136 9.98846 52.8189 13.2464 55.006L15.0495 51.8832C15.604 50.9238 16.8307 50.5917 17.7912 51.1483C18.7513 51.7029 19.0798 52.9306 18.5261 53.89L16.7359 56.9901C20.1722 58.6825 23.971 59.7338 27.9933 60.0002V56.4228C27.9933 55.3144 28.8917 54.416 30.0001 54.416C31.1082 54.416 32.0068 55.3144 32.0068 56.4228V60.0001C36.0302 59.7336 39.828 58.6822 43.2652 56.989L41.4729 53.8869C40.9184 52.9276 41.2469 51.6999 42.207 51.1462C43.1662 50.5887 44.394 50.9209 44.9478 51.8802L46.7534 55.0069C50.0114 52.8198 52.8178 50.0136 55.0046 46.7555L51.8779 44.9507C50.9186 44.396 50.5893 43.1693 51.1432 42.209C51.6968 41.2498 52.9224 40.9184 53.8846 41.4742L56.9889 43.2663C58.6819 39.8289 59.7333 36.0312 59.999 32.0078L56.4205 32.0089C55.3124 32.0089 54.4138 31.1102 54.4138 30.0021ZM47.7263 32.0068H32.6691C32.0597 32.8161 31.0911 33.3393 30.0001 33.3393C28.1558 33.3393 26.6607 31.8442 26.6607 30C26.6607 28.646 27.4669 27.4813 28.625 26.9571L33.9574 3.13944C34.2005 2.05777 35.2823 1.38363 36.3543 1.61876C37.4361 1.86175 38.1171 2.93458 37.8749 4.01638L32.541 27.8345C32.5852 27.8862 32.6281 27.9388 32.6691 27.9933H47.7262C48.8346 27.9933 49.7329 28.8918 49.7329 30C49.7331 31.1083 48.8347 32.0068 47.7263 32.0068Z" fill="#5877C5"/>
</g>
<defs>
<clipPath id="clip0_36_25">
<rect width="60" height="60" fill="white"/>
</clipPath>
</defs>
</svg>
