<svg width="50" height="50" viewBox="0 0 50 50" fill="none" xmlns="http://www.w3.org/2000/svg">
<g clip-path="url(#clip0_57_61)">
<path d="M49.2021 0H47.0745C46.6337 0 46.2766 0.357227 46.2766 0.797852C46.2766 1.23848 46.6337 1.5957 47.0745 1.5957H48.4042V48.4043H47.0745C46.6337 48.4043 46.2766 48.7615 46.2766 49.2021C46.2766 49.6428 46.6337 50 47.0745 50H49.2021C49.6428 50 50 49.6428 50 49.2021V0.797852C50 0.357227 49.6428 0 49.2021 0Z" fill="#5877C5"/>
<path d="M38.5639 0H0.797852C0.357129 0 0 0.357227 0 0.797852V49.2021C0 49.5044 0.170703 49.7807 0.441016 49.9157C0.609473 50 0.609473 50 1.82637 50H24.734C25.1747 50 25.5318 49.6428 25.5318 49.2021C25.5318 48.7615 25.1747 48.4043 24.734 48.4043C24.5213 48.4043 5.72812 48.4043 1.5957 48.4043V1.5957H37.7659V37.7659H27.9255C27.4848 37.7659 27.1276 38.1231 27.1276 38.5638V49.2021C27.1276 49.5249 27.322 49.8157 27.6202 49.9393C27.7189 49.9801 27.8226 50 27.9253 50C28.1329 50 28.337 49.9189 28.4897 49.7663C28.4897 49.7663 39.128 39.128 39.1296 39.1263C39.2753 38.9761 39.3609 38.7812 39.3616 38.5663V0.797852C39.3617 0.357227 39.0046 0 38.5639 0ZM28.7234 47.276V39.3617H36.6377L28.7234 47.276Z" fill="#5877C5"/>
<path d="M43.8831 0H41.7554C41.3147 0 40.9576 0.357227 40.9576 0.797852C40.9576 1.23848 41.3147 1.5957 41.7554 1.5957H43.0852V48.4043H32.3699C31.9292 48.4043 31.572 48.7615 31.572 49.2021C31.572 49.6428 31.9292 50 32.3699 50H43.8831C44.3238 50 44.6809 49.6428 44.6809 49.2021V0.797852C44.6809 0.357227 44.3238 0 43.8831 0Z" fill="#5877C5"/>
<path d="M30.1063 19.9468H9.25525C8.81453 19.9468 8.4574 20.304 8.4574 20.7446C8.4574 21.1853 8.81453 21.5425 9.25525 21.5425H30.1063C30.547 21.5425 30.9042 21.1853 30.9042 20.7446C30.9042 20.304 30.5471 19.9468 30.1063 19.9468Z" fill="#5877C5"/>
<path d="M30.1063 15.6915H9.25525C8.81453 15.6915 8.4574 16.0488 8.4574 16.4894C8.4574 16.93 8.81453 17.2872 9.25525 17.2872H30.1063C30.547 17.2872 30.9042 16.93 30.9042 16.4894C30.9042 16.0488 30.5471 15.6915 30.1063 15.6915Z" fill="#5877C5"/>
<path d="M30.1063 11.4362H9.25525C8.81453 11.4362 8.4574 11.7934 8.4574 12.234C8.4574 12.6746 8.81453 13.0319 9.25525 13.0319H30.1063C30.547 13.0319 30.9042 12.6746 30.9042 12.234C30.9042 11.7934 30.5471 11.4362 30.1063 11.4362Z" fill="#5877C5"/>
<path d="M30.1063 24.2021H9.25525C8.81453 24.2021 8.4574 24.5594 8.4574 25C8.4574 25.4406 8.81453 25.7979 9.25525 25.7979H30.1063C30.547 25.7979 30.9042 25.4406 30.9042 25C30.9042 24.5594 30.5471 24.2021 30.1063 24.2021Z" fill="#5877C5"/>
<path d="M22.1276 28.4574H9.25525C8.81453 28.4574 8.4574 28.8146 8.4574 29.2553C8.4574 29.6959 8.81453 30.0531 9.25525 30.0531H22.1276C22.5683 30.0531 22.9255 29.6959 22.9255 29.2553C22.9255 28.8146 22.5683 28.4574 22.1276 28.4574Z" fill="#5877C5"/>
</g>
<defs>
<clipPath id="clip0_57_61">
<rect width="50" height="50" fill="white"/>
</clipPath>
</defs>
</svg>
