<svg width="60" height="60" viewBox="0 0 60 60" fill="none" xmlns="http://www.w3.org/2000/svg">
<g clip-path="url(#clip0_36_42)">
<path d="M19.9009 12.2613C23.2868 12.2613 26.0316 9.51653 26.0316 6.13066C26.0316 2.74479 23.2868 0 19.9009 0C16.5151 0 13.7703 2.74479 13.7703 6.13066C13.7703 9.51653 16.5151 12.2613 19.9009 12.2613Z" fill="#5877C5"/>
<path d="M52.0839 33.4946C55.1862 33.4946 57.7011 30.9798 57.7011 27.8775C57.7011 24.7753 55.1862 22.2604 52.0839 22.2604C48.9817 22.2604 46.4668 24.7753 46.4668 27.8775C46.4668 30.9798 48.9817 33.4946 52.0839 33.4946Z" fill="#5877C5"/>
<path d="M52.3318 39.084C52.3179 38.9284 52.2911 38.7856 52.2584 38.6468C52.1315 37.8964 51.8192 37.1627 51.2849 36.5015C51.2849 36.5015 49.0384 37.7615 48.621 37.4274C48.2037 37.0943 48.8778 34.8697 48.8778 34.8697C47.3293 34.374 44.9996 35.179 44.2848 35.5627C43.572 35.9463 33.4669 33.6999 28.7529 31.1847C28.3296 30.9587 27.9043 30.8407 27.4909 30.813C27.3323 30.0833 26.9298 29.3844 26.213 28.8362C23.3469 26.6433 20.8735 24.1034 18.7251 21.2898C20.1616 19.0473 20.3014 16.2556 18.2136 14.1936C16.2566 12.2624 12.3248 11.8936 10.4561 14.2352C4.2471 22.0135 1.17186 28.1145 2.67776 38.0282C3.69986 37.3313 4.27486 37.8081 4.57921 38.8074C4.57921 44.831 4.57921 50.8566 4.57921 56.8802C4.57921 61.04 11.0321 61.04 11.0321 56.8802C11.0321 50.8992 11.0321 44.9193 11.0321 38.9343C11.4613 34.7815 12.3764 29.662 14.3165 26.0385C16.8326 29.1326 19.6977 31.9124 22.9534 34.4037C23.3995 34.7428 23.8416 34.9312 24.2699 35.0045C24.49 35.3852 24.828 35.7352 25.3436 36.0098C30.0526 38.5239 34.9411 40.1676 40.1339 40.9795C38.6032 43.22 37.2044 45.5418 35.8938 47.9211C35.2068 46.6611 34.5039 45.4021 33.7385 44.1827C32.3546 41.963 29.894 39.0969 27.0002 40.8318C22.9801 43.2488 20.1428 48.5764 17.6445 52.422C17.3105 52.9385 17.1637 53.4401 17.1568 53.9229C16.6165 53.9249 16.098 53.9269 15.6182 53.9319C11.8053 53.9527 11.841 59.8632 15.6549 59.8424C21.3701 59.8077 31.8162 59.777 37.5305 59.7393C37.7516 59.7373 37.9568 59.7155 38.1482 59.6779C39.7968 59.8285 41.4613 59.1108 42.4329 57.1082C44.0478 53.7931 45.7927 50.5245 47.8141 47.4413C48.74 50.9349 50.0605 54.3036 51.8093 57.5821C53.6057 60.9488 58.4049 57.4859 56.6393 54.1737C54.1232 49.4608 52.8007 44.3859 52.3318 39.084ZM23.7395 53.8922C25.2672 51.5763 26.8713 49.2773 28.7073 47.2054C29.0692 47.7883 29.3894 48.4079 29.7086 48.9611C30.6435 50.5701 31.5089 52.2197 32.4061 53.8545C29.6739 53.8684 26.6363 53.8793 23.7395 53.8922ZM45.7639 42.6837L43.9477 43.4778L43.7445 41.9937L47.7833 38.3484L45.7639 42.6837Z" fill="#5877C5"/>
</g>
<defs>
<clipPath id="clip0_36_42">
<rect width="60" height="60" fill="white"/>
</clipPath>
</defs>
</svg>
