<svg width="50" height="50" viewBox="0 0 50 50" fill="none" xmlns="http://www.w3.org/2000/svg">
<path d="M37.5765 24.9999C37.5765 26.3157 36.5055 27.3867 35.1897 27.3867C33.8739 27.3867 32.8029 26.3157 32.8029 24.9999C32.8029 23.6841 33.8739 22.6131 35.1897 22.6131C36.5055 22.6131 37.5765 23.6841 37.5765 24.9999ZM7.76214 24.9999C7.76214 26.3157 8.83313 27.3867 10.1489 27.3867C11.4647 27.3867 12.5357 26.3157 12.5357 24.9999C12.5357 23.6841 11.4647 22.6131 10.1489 22.6131C8.83313 22.6131 7.76214 23.6841 7.76214 24.9999ZM3.92697 39.035H31.2627V35.6792H7.96614C8.00694 35.4446 8.03754 35.1999 8.03754 34.9449C8.03754 32.7519 6.25255 30.9669 4.05957 30.9669C3.82497 30.9669 3.59037 30.9873 3.36597 31.0281V18.9616C3.59037 19.0024 3.82497 19.0228 4.05957 19.0228C6.25255 19.0228 8.03754 17.2378 8.03754 15.0448C8.03754 14.7898 8.01714 14.5552 7.96614 14.3104H37.1481C37.0665 14.6164 37.0257 14.9428 37.0257 15.2794C37.0257 17.4724 38.8107 19.2574 41.0037 19.2574C41.3403 19.2574 41.6769 19.2166 41.9829 19.135V27.2847H45.3386V14.8918C45.3386 12.7294 43.5741 10.9648 41.4117 10.9648H3.92697C1.76459 10.9648 0 12.7294 0 14.8918V35.1081C0 37.2704 1.76459 39.035 3.92697 39.035ZM32.8029 36.2198C32.5275 36.2198 32.3031 36.4442 32.3031 36.7196V38.5352C32.3031 38.8106 32.5275 39.035 32.8029 39.035H44.8388C45.1142 39.035 45.3386 38.8106 45.3386 38.5352V36.7196C45.3386 36.4442 45.1142 36.2198 44.8388 36.2198H32.8029ZM47.6744 34.5879V32.7723C47.6744 32.4969 47.45 32.2725 47.1746 32.2725H35.1387C34.8633 32.2725 34.6389 32.4969 34.6389 32.7723V34.5879C34.6389 34.8633 34.8633 35.0877 35.1387 35.0877H47.1746C47.45 35.0877 47.6744 34.8633 47.6744 34.5879ZM49.5002 28.3251H37.4643C37.1889 28.3251 36.9645 28.5495 36.9645 28.8249V30.6405C36.9645 30.9159 37.1889 31.1403 37.4643 31.1403H49.5002C49.7756 31.1403 50 30.9159 50 30.6405V28.8249C50 28.5495 49.7756 28.3251 49.5002 28.3251ZM22.6744 16.3912C27.4276 16.3912 31.2831 20.2468 31.2831 24.9999C31.2831 29.7531 27.4276 33.6087 22.6744 33.6087C17.9213 33.6087 14.0657 29.7531 14.0657 24.9999C14.0657 20.2468 17.9111 16.3912 22.6744 16.3912ZM23.4292 18.6046H22.45C22.297 18.6046 22.1848 18.727 22.1848 18.8698V20.0428C21.4402 20.155 20.8282 20.4202 20.3692 20.869C19.8592 21.3586 19.6042 21.9808 19.6042 22.7457C19.6042 23.5821 19.849 24.2247 20.3284 24.6531C20.8078 25.0815 21.583 25.5099 22.6336 25.9383C23.0722 26.1219 23.368 26.3157 23.5414 26.5095C23.7148 26.7033 23.7964 26.9787 23.7964 27.3357C23.7964 27.6417 23.7148 27.8865 23.5516 28.0803C23.3884 28.2639 23.1436 28.3659 22.8172 28.3659C22.4296 28.3659 22.1134 28.2435 21.8788 27.9987C21.685 27.7947 21.5626 27.4887 21.532 27.0807C21.5218 26.9175 21.379 26.7951 21.2158 26.8053L19.6042 26.8359C19.4308 26.8359 19.288 26.9889 19.288 27.1623C19.3288 28.0191 19.6042 28.6719 20.1142 29.1411C20.665 29.6409 21.3586 29.9469 22.1848 30.0387V31.1403C22.1848 31.2933 22.3072 31.4055 22.45 31.4055H23.4292C23.5822 31.4055 23.6944 31.2831 23.6944 31.1403V29.9979C24.3574 29.8755 24.898 29.6103 25.3162 29.2125C25.8058 28.7331 26.0506 28.1109 26.0506 27.3255C26.0506 26.5095 25.8058 25.8771 25.3162 25.4283C24.8266 24.9897 24.0616 24.5409 23.0212 24.1023C22.5724 23.9085 22.2664 23.7147 22.1032 23.5209C21.94 23.3271 21.8584 23.0721 21.8584 22.7661C21.8584 22.4602 21.9298 22.2154 22.0828 22.0114C22.2358 21.8176 22.4704 21.7156 22.7866 21.7156C23.1028 21.7156 23.3476 21.838 23.5414 22.0726C23.6944 22.2664 23.7862 22.5316 23.8168 22.8885C23.827 23.0517 23.98 23.1639 24.133 23.1639L25.7446 23.1435C25.918 23.1435 26.071 22.9905 26.0608 22.8171C26.02 22.1134 25.7956 21.5218 25.3774 21.0424C24.949 20.5426 24.388 20.2264 23.6842 20.0836V18.8698C23.6944 18.7168 23.572 18.6046 23.4292 18.6046Z" fill="#5877C5"/>
</svg>
