<svg width="50" height="50" viewBox="0 0 50 50" fill="none" xmlns="http://www.w3.org/2000/svg">
<path d="M36.4584 25C42.7867 25 47.9167 30.13 47.9167 36.4583C47.9167 42.7867 42.7867 47.9167 36.4584 47.9167C30.13 47.9167 25 42.7867 25 36.4583C25 30.13 30.13 25 36.4584 25ZM25.0465 29.1652C24.4284 30.1304 23.9292 31.1792 23.57 32.2908L8.85924 32.2915C7.99757 32.2915 7.29907 32.99 7.29907 33.8517V35.0552C7.29907 36.1712 7.69722 37.2504 8.42193 38.0992C11.033 41.1569 15.1286 42.7106 20.8334 42.7106C22.0759 42.7106 23.2423 42.6369 24.3338 42.49C24.8446 43.521 25.4854 44.4762 26.2327 45.3365C24.5754 45.6702 22.7738 45.8356 20.8334 45.8356C14.2795 45.8356 9.30861 43.9498 6.04549 40.1285C4.83766 38.7142 4.17407 36.9152 4.17407 35.0552V33.8517C4.17407 31.2642 6.2717 29.1665 8.85924 29.1665L25.0465 29.1652ZM36.4584 29.1667L36.2711 29.1835C35.8459 29.2606 35.5107 29.5958 35.4336 30.021L35.4167 30.2083L35.4146 35.4167H30.2165L30.0292 35.4335C29.604 35.5106 29.2688 35.8458 29.1917 36.271L29.1748 36.4583L29.1917 36.6456C29.2688 37.0708 29.604 37.406 30.0292 37.4833L30.2165 37.5H35.4146L35.4167 42.7083L35.4336 42.8956C35.5107 43.3208 35.8459 43.656 36.2711 43.7331L36.4584 43.75L36.6457 43.7331C37.0709 43.656 37.4061 43.3208 37.4832 42.8956L37.5 42.7083L37.498 37.5H42.7165L42.9038 37.4833C43.329 37.406 43.6642 37.0708 43.7413 36.6456L43.7582 36.4583L43.7413 36.271C43.6642 35.8458 43.329 35.5106 42.9038 35.4335L42.7165 35.4167H37.498L37.5 30.2083L37.4832 30.021C37.4061 29.5958 37.0709 29.2606 36.6457 29.1835L36.4584 29.1667ZM20.8334 4.17633C26.5863 4.17633 31.25 8.84002 31.25 14.593C31.25 20.346 26.5863 25.0096 20.8334 25.0096C15.0804 25.0096 10.4167 20.346 10.4167 14.593C10.4167 8.84002 15.0804 4.17633 20.8334 4.17633ZM20.8334 7.30133C16.8063 7.30133 13.5417 10.5659 13.5417 14.593C13.5417 18.6201 16.8063 21.8846 20.8334 21.8846C24.8604 21.8846 28.125 18.6201 28.125 14.593C28.125 10.5659 24.8604 7.30133 20.8334 7.30133Z" fill="#5877C5"/>
</svg>
