<svg width="60" height="60" viewBox="0 0 60 60" fill="none" xmlns="http://www.w3.org/2000/svg">
<path d="M37.5216 16.4164C33.3744 13.3957 26.675 13.3957 22.5523 16.4164C18.4296 19.4372 18.4542 24.3478 22.6014 27.3685C26.7486 30.3892 33.448 30.3892 37.5707 27.3685C41.6933 24.3323 41.6688 19.4372 37.5216 16.4164ZM35.6197 21.1721C35.2639 21.3116 34.9081 21.4665 34.5523 21.6059C34.3314 21.6833 34.1964 21.6988 34.0983 21.6369C34.0492 21.5904 34.0001 21.5284 33.951 21.4355C33.7179 20.9553 33.3621 20.537 32.8836 20.1962C32.8222 20.1497 32.7486 20.1033 32.675 20.0568C32.5155 19.9484 32.3682 19.8709 32.1719 19.8089C31.4848 19.6076 30.8713 19.9329 30.9572 20.4751C30.994 20.7539 31.1167 21.0017 31.2639 21.2651C31.5093 21.6988 31.7793 22.1326 31.951 22.5973C32.5277 24.0534 31.2762 25.4941 29.2639 25.6335C28.54 25.68 27.8529 25.5715 27.2149 25.3082C26.9327 25.1998 26.7241 25.1998 26.5155 25.3857C26.3069 25.5561 26.0738 25.711 25.8529 25.8659C25.6566 26.0053 25.448 26.0208 25.2517 25.8814C25.1045 25.7884 24.9695 25.68 24.8223 25.587C24.7241 25.5096 24.6259 25.4476 24.5278 25.3702C24.3192 25.2153 24.3437 25.0603 24.54 24.9054C24.6996 24.7815 24.8591 24.6731 25.0063 24.5492C25.3621 24.2858 25.3621 24.2703 25.0677 23.976C24.6996 23.6042 24.3683 23.2169 24.1597 22.7832C24.0002 22.4424 24.037 22.3649 24.4664 22.1791C24.7854 22.0551 25.0922 21.9157 25.4112 21.7918C25.6443 21.6988 25.7793 21.6833 25.8775 21.7453C25.9388 21.7918 25.9756 21.8537 26.0247 21.9622C26.2333 22.4579 26.5891 22.8916 27.0186 23.3099C27.0922 23.3873 27.1781 23.4493 27.2517 23.5113C27.4848 23.6817 27.7548 23.8056 28.0615 23.8985C28.859 24.1309 29.5707 23.7281 29.4971 23.093C29.4725 22.8761 29.3866 22.6902 29.2762 22.4889C29.0063 21.9777 28.6505 21.4974 28.4664 20.9553C28.1719 20.0878 28.3069 19.2977 29.2517 18.6781C30.3314 17.981 31.5339 17.9346 32.8099 18.3683C33.3375 18.5542 33.3253 18.5542 33.7302 18.2599C33.8652 18.1514 34.0001 18.0585 34.1351 17.9655C34.4418 17.7487 34.5523 17.7487 34.859 17.9655C34.9572 18.0275 35.0431 18.105 35.1412 18.1669C35.7915 18.6316 35.7915 18.6316 35.1535 19.1119C34.6995 19.4372 34.6995 19.4372 35.0799 19.8244C35.3743 20.1188 35.6075 20.4286 35.7793 20.7694C35.9142 20.9398 35.8651 21.0792 35.6197 21.1721ZM43.0553 31.3651C41.9142 32.2016 40.0614 32.2016 38.9081 31.3651C37.767 30.5286 37.7547 29.1654 38.8958 28.3289C40.0369 27.4924 41.8896 27.4924 43.043 28.3289C44.1964 29.1654 44.2087 30.5286 43.0553 31.3651ZM21.2149 15.4405C20.0738 16.277 18.2211 16.277 17.0677 15.4405C15.9143 14.604 15.9143 13.2408 17.0554 12.4043C18.1965 11.5678 20.0493 11.5678 21.2026 12.4043C22.3437 13.2408 22.356 14.604 21.2149 15.4405ZM58.5767 24.8745L25.8775 1.03402C23.9879 -0.344672 20.9204 -0.344672 19.0431 1.03402L1.50949 13.8914C-0.3678 15.2701 -0.355531 17.5163 1.53403 18.895L34.2332 42.7354C36.1228 44.1141 39.1903 44.1141 41.0676 42.7354L58.589 29.878C60.4785 28.4993 60.4662 26.2531 58.5767 24.8745ZM41.4234 38.1966C41.2148 37.9487 40.9694 37.7164 40.6749 37.4995C38.7608 36.1053 35.6566 36.1053 33.7547 37.4995C33.6075 37.608 33.4848 37.7164 33.3498 37.8403L7.96345 19.3287C8.20884 19.2048 8.44197 19.0654 8.66283 18.9105C10.5647 17.5163 10.5524 15.2546 8.63829 13.8605C8.4297 13.7055 8.20884 13.5661 7.97571 13.4577L18.4419 5.77422C18.6014 5.94462 18.7855 6.09953 18.9941 6.25444C20.9082 7.64861 24.0124 7.64861 25.9143 6.25444C26.1351 6.09953 26.3192 5.92913 26.491 5.74324L51.9632 24.3013C51.6197 24.4562 51.3129 24.6266 51.0184 24.8435C49.1166 26.2377 49.1166 28.5148 51.043 29.909C51.3375 30.1259 51.6687 30.2963 52.0123 30.4512L41.4234 38.1966ZM0.675139 23.6662C1.50949 23.124 2.79783 23.2014 3.59537 23.7901L37.7792 48.6994L56.2577 35.1294C57.0552 34.5408 58.3681 34.5408 59.1779 35.1294C59.9877 35.7181 59.9877 36.6785 59.1902 37.2672L39.5461 51.6737C38.5891 52.3862 37.0185 52.3862 36.0492 51.6737L35.3621 51.178L34.8835 50.8217L0.61379 25.8504C-0.220562 25.2462 -0.208292 24.2393 0.675139 23.6662ZM59.2147 45.0591L39.5706 59.4656C38.6136 60.1781 37.043 60.1781 36.0737 59.4656L35.3989 58.9699L34.9081 58.6136L0.638329 33.6423C-0.196022 33.0381 -0.171482 32.0312 0.711949 31.4581C1.53403 30.9159 2.83464 30.9934 3.63218 31.582L37.8038 56.4913L56.2822 42.9368C57.092 42.3482 58.3926 42.3482 59.2024 42.9368C60.0123 43.51 60.0245 44.4704 59.2147 45.0591Z" fill="#5877C5"/>
</svg>
