<svg width="40" height="40" viewBox="0 0 40 40" fill="none" xmlns="http://www.w3.org/2000/svg">
<g clip-path="url(#clip0_58_3)">
<path d="M39.9396 15.4061C39.7946 14.9598 39.4087 14.6345 38.9443 14.5671L26.618 12.7752L21.1059 1.60604C20.8981 1.18518 20.4695 0.918701 20.0003 0.918701C19.531 0.918701 19.1024 1.18518 18.8946 1.60604L13.3824 12.7752L1.05579 14.5671C0.591212 14.6346 0.205378 14.96 0.0603823 15.4061C-0.0846137 15.8525 0.0362163 16.3424 0.372403 16.67L9.29196 25.3642L7.18656 37.6399C7.10732 38.1025 7.29736 38.57 7.67695 38.8457C8.05654 39.1215 8.55991 39.158 8.97534 38.9396L20.0003 33.144L31.0251 38.9396C31.2054 39.0344 31.4025 39.0811 31.5987 39.0811C31.5998 39.0811 31.601 39.0811 31.6021 39.0811C31.6021 39.0811 31.6021 39.0811 31.6023 39.0811C32.2832 39.0811 32.8352 38.5291 32.8352 37.8481C32.8352 37.7447 32.8224 37.6443 32.7986 37.5483L30.7086 25.3638L39.6277 16.6698C39.9637 16.3425 40.0847 15.8525 39.9396 15.4061ZM28.5232 24.0508C28.2325 24.3341 28.0999 24.7423 28.1686 25.1422L29.9615 35.5946L20.5742 30.6598C20.215 30.4709 19.7859 30.4709 19.4269 30.6598L10.0395 35.5946L11.8323 25.1422C11.9011 24.7423 11.7684 24.3342 11.4778 24.0508L3.88289 16.648L14.379 15.1222C14.7806 15.0639 15.1278 14.8117 15.3073 14.4477L20.0008 4.93766L24.6943 14.4477C24.8738 14.8115 25.221 15.0639 25.6224 15.1222L36.118 16.648L28.5232 24.0508Z" fill="#5877C5"/>
</g>
<defs>
<clipPath id="clip0_58_3">
<rect width="40" height="40" fill="white"/>
</clipPath>
</defs>
</svg>
