<svg width="50" height="50" viewBox="0 0 50 50" fill="none" xmlns="http://www.w3.org/2000/svg">
<path d="M31.25 21.0938C31.25 21.525 30.9 21.875 30.4688 21.875H19.5312C19.1 21.875 18.75 21.525 18.75 21.0938C18.75 20.6625 19.1 20.3125 19.5312 20.3125H30.4688C30.9 20.3125 31.25 20.6625 31.25 21.0938ZM19.5312 25H30.4688C30.9 25 31.25 24.65 31.25 24.2188C31.25 23.7875 30.9 23.4375 30.4688 23.4375H19.5312C19.1 23.4375 18.75 23.7875 18.75 24.2188C18.75 24.65 19.1 25 19.5312 25ZM19.5312 28.125H30.4688C30.9 28.125 31.25 27.775 31.25 27.3438C31.25 26.9125 30.9 26.5625 30.4688 26.5625H19.5312C19.1 26.5625 18.75 26.9125 18.75 27.3438C18.75 27.775 19.1 28.125 19.5312 28.125ZM46.875 25C46.875 21.9188 45.3813 19.1937 43.0875 17.4844C43.4875 14.6641 42.6375 11.7016 40.4688 9.53281C38.6453 7.70937 36.2609 6.81719 33.8719 6.81719C33.4188 6.81719 32.9656 6.85 32.5172 6.9125C30.8063 4.61875 28.0812 3.125 25 3.125C21.9188 3.125 19.1937 4.61875 17.4844 6.9125C17.0344 6.84844 16.5812 6.81719 16.1297 6.81719C13.7406 6.81719 11.3562 7.70937 9.53281 9.53281C7.36406 11.7016 6.5125 14.6641 6.9125 17.4844C4.61875 19.1937 3.125 21.9188 3.125 25C3.125 28.0812 4.61875 30.8062 6.9125 32.5156C6.5125 35.3359 7.3625 38.2984 9.53125 40.4672C11.3547 42.2906 13.7391 43.1828 16.1281 43.1828C16.5812 43.1828 17.0344 43.15 17.4828 43.0875C19.1938 45.3813 21.9188 46.875 25 46.875C28.0812 46.875 30.8062 45.3813 32.5156 43.0875C32.9656 43.1516 33.4188 43.1828 33.8703 43.1828C36.2594 43.1828 38.6437 42.2906 40.4672 40.4672C42.6359 38.2984 43.4875 35.3344 43.0859 32.5156C45.3813 30.8062 46.875 28.0812 46.875 25ZM42.1531 31.2625L41.4094 31.8172L41.5406 32.7359C41.8922 35.2125 41.0984 37.6281 39.3641 39.3641C37.9078 40.8203 35.9578 41.6219 33.8719 41.6219C33.4937 41.6219 33.1125 41.5953 32.7359 41.5422L31.8172 41.4109L31.2625 42.1547C29.7672 44.1609 27.4844 45.3125 25 45.3125C22.5156 45.3125 20.2328 44.1609 18.7375 42.1531L18.1828 41.4094L17.2641 41.5406C16.8891 41.5938 16.5062 41.6203 16.1281 41.6203C14.0422 41.6203 12.0922 40.8187 10.6359 39.3625C8.9 37.6266 8.10781 35.2109 8.45938 32.7344L8.59062 31.8156L7.84687 31.2609C5.83906 29.7672 4.6875 27.4844 4.6875 25C4.6875 22.5141 5.83906 20.2328 7.84687 18.7375L8.59062 18.1828L8.45938 17.2641C8.10781 14.7875 8.90156 12.3719 10.6375 10.6375C12.0938 9.18125 14.0437 8.37969 16.1297 8.37969C16.5078 8.37969 16.8906 8.40625 17.2656 8.45937L18.1844 8.59063L18.7391 7.84687C20.2328 5.83906 22.5156 4.6875 25 4.6875C27.4844 4.6875 29.7672 5.83906 31.2625 7.84531L31.8172 8.58906L32.7359 8.45781C33.1109 8.40469 33.4937 8.37813 33.8719 8.37813C35.9578 8.37813 37.9078 9.17969 39.3641 10.6359C41.1 12.3719 41.8922 14.7875 41.5406 17.2641L41.4094 18.1828L42.1531 18.7375C44.1609 20.2328 45.3125 22.5141 45.3125 25C45.3125 27.4844 44.1609 29.7672 42.1531 31.2625ZM3.125 48.4375C3.125 49.3 2.425 50 1.5625 50C0.7 50 0 49.3 0 48.4375C0 47.575 0.7 46.875 1.5625 46.875C2.425 46.875 3.125 47.575 3.125 48.4375ZM6.25 40.625C4.52344 40.625 3.125 42.0234 3.125 43.75C3.125 45.4766 4.52344 46.875 6.25 46.875C7.97656 46.875 9.375 45.4766 9.375 43.75C9.375 42.0234 7.97656 40.625 6.25 40.625ZM6.25 45.1922C5.45469 45.1922 4.80781 44.5453 4.80781 43.75C4.80781 42.9547 5.45469 42.3078 6.25 42.3078C7.04531 42.3078 7.69219 42.9547 7.69219 43.75C7.69219 44.5453 7.04531 45.1922 6.25 45.1922Z" fill="#5877C5"/>
</svg>
